<svg xmlns="http://www.w3.org/2000/svg" height="48" viewBox="0 -960 960 960" width="48"><path d="M482.93-271q16.445 0 27.758-11.487Q522-293.975 522-311v-170q0-16.05-11.356-27.525Q499.287-520 483.14-520q-16.147 0-28.143 11.475Q443-497.05 443-481v170q0 17.025 11.742 28.513Q466.485-271 482.93-271Zm-2.948-306q20.518 0 33.768-12.9Q527-602.799 527-622.825q0-23.125-13.182-35.65Q500.636-671 480.193-671q-22.693 0-34.943 12.35Q433-646.301 433-624.175q0 21.275 13.232 34.225Q459.465-577 479.982-577Zm-.037 518q-87.053 0-164.146-32.604-77.094-32.603-134.343-89.852-57.249-57.249-89.852-134.41Q59-393.028 59-480.362q0-87.228 32.662-163.934 32.663-76.706 90.203-134.253 57.54-57.547 134.252-90.499Q392.829-902 479.836-902q87.369 0 164.544 32.858 77.175 32.858 134.401 90.257 57.225 57.399 90.222 134.514Q902-567.257 902-479.724q0 87.468-32.952 163.882t-90.499 133.781q-57.547 57.367-134.421 90.214Q567.255-59 479.945-59Z"/></svg>