<svg xmlns="http://www.w3.org/2000/svg" height="24" viewBox="0 -960 960 960" width="24"><path d="M100-154q-27.45 0-46.725-19.5Q34-193 34-221.816q0-28.816 18.975-47.5T100-288h288q28.475 0 47.737 19.63Q455-248.74 455-220.825q0 29.316-18.775 48.071Q417.45-154 388-154H100Zm0-217q-27.45 0-46.725-19.5Q34-410 34-438.816q0-28.816 18.825-47.5T101-505h129q27.45 0 46.725 19.63Q296-465.74 296-437.825q0 29.316-18.975 48.071Q258.05-371 230-371H100Zm0-216q-27.45 0-46.725-19.5Q34-626 34-654.816q0-28.816 18.825-48T101-722h129q27.45 0 46.725 19.917Q296-682.165 296-653.825q0 29.316-18.975 48.071Q258.05-587 230-587H100Zm482.071 283q-94.861 0-159.966-67.413Q357-438.827 357-534.731q0-95.905 65.394-164.087Q487.788-767 581.394-767T740.5-699.15Q806-631.3 806-535q0 30.651-7 59.826Q792-446 776-420l110 116q17 18.289 16.5 41.144Q902-240 885-222.5T843.522-205q-24.478 0-42.522-19L693-337q-25 17-53.488 25-28.489 8-57.441 8Zm-.571-120q43.5 0 75-32.607 31.5-32.606 31.5-79.187 0-46.581-31.417-79.394Q625.167-648 582-648q-45 0-76 32.907t-31 79.917q0 45.926 30.792 78.551Q536.583-424 581.5-424Z"/></svg>